# xmcd CD database file
#
# Track frame offsets:
#	150
#	15463
#	29895
#	55468
#	80945
#	111555
#	133275
#	160148
#	184168
#	216208
#	237798
#	265510
#
# Disc length: 3925 seconds
#
# Revision: 0
# Processed by: cddbd v1.4PL0 Copyright (c) Steve Scherf et al.
# Submitted via: CDex 1.51
#
DISCID=b20f530c
DTITLE=Dave Stahl Band - Standard Issue
DYEAR=1991
DGENRE=Jazz
TTITLE0=It Could Happen To You
TTITLE1=Take The A Train
TTITLE2=Lament
TTITLE3=On Green Dolphin Street
TTITLE4=Alone Together
TTITLE5=Jazz Me Blues
TTITLE6=Speak Low
TTITLE7=Careless Love
TTITLE8=When I Fall In Love
TTITLE9=Falling In Love With Love
TTITLE10=Killer Joe
TTITLE11=Caravan
EXTD=YEAR: 1991
EXTT0=
EXTT1=
EXTT2=
EXTT3=
EXTT4=
EXTT5=
EXTT6=
EXTT7=
EXTT8=
EXTT9=
EXTT10=
EXTT11=
PLAYORDER=
